<?xml version="1.0" encoding="UTF-8"?>
<svg width="135px" height="109px" viewBox="0 0 135 109" version="1.1" xmlns="http://www.w3.org/2000/svg" xmlns:xlink="http://www.w3.org/1999/xlink">
    <!-- Generator: Sketch 56.2 (81672) - https://sketch.com -->
    <title>copy_survey</title>
    <desc>Created with Sketch.</desc>
    <defs>
        <polygon id="path-1" points="0.0791155218 0.398797183 84.9560279 0.398797183 84.9560279 81.6688817 0.0791155218 81.6688817"></polygon>
        <linearGradient x1="100%" y1="50%" x2="5.38956926%" y2="50%" id="linearGradient-3">
            <stop stop-color="#2E2EA4" offset="0%"></stop>
            <stop stop-color="#7D7DE2" offset="100%"></stop>
        </linearGradient>
        <polygon id="path-4" points="0.758740602 0.204671647 19.5636316 0.204671647 19.5636316 13.2222095 0.758740602 13.2222095"></polygon>
        <polygon id="path-6" points="0.0856309177 0.432840845 91.9524066 0.432840845 91.9524066 88.6406155 0.0856309177 88.6406155"></polygon>
        <polygon id="path-8" points="0.817105263 0.21929105 21.0685263 0.21929105 21.0685263 14.166653 0.817105263 14.166653"></polygon>
    </defs>
    <g id="copy_survey" stroke="none" stroke-width="1" fill="none" fill-rule="evenodd">
        <g id="Group" transform="translate(0.000000, 10.000000)">
            <g id="Group-8-Copy" transform="translate(0.000000, 7.000000)">
                <g id="Group-16">
                    <mask id="mask-2" fill="white">
                        <use xlink:href="#path-1"></use>
                    </mask>
                    <g id="Clip-15"></g>
                    <path d="M65.5552846,45.2816704 L65.6638033,45.1326845 C68.7365957,43.6555296 72.0561254,41.2821493 74.6651432,39.6306 C77.202196,38.0252479 83.0062326,30.5840366 84.9572844,28.1771634 C79.3828506,29.4591352 69.0724325,31.9110507 62.4356578,31.7170225 L62.3237122,31.7401211 C69.9976972,28.5802338 78.7020386,14.5616986 82.4282277,0.398797183 C75.122064,8.16454366 55.3990774,16.4003465 46.2720842,16.1335577 C32.08812,15.720093 19.7661082,22.754769 17.6734109,36.5815859 C17.5911651,37.1267127 17.133102,37.530938 16.5870816,37.514769 L12.3422873,37.3911915 C6.41602446,37.219107 1.08718554,41.4288254 0.209897586,47.3570789 C-0.83416646,54.4252479 4.50952239,60.6699521 11.3644768,60.8709099 L35.0352593,61.5615577 C34.9564404,67.5336986 34.4686775,76.1875859 33.6050971,81.6688817 L56.7892589,80.8708254 C57.3204294,70.7143746 58.6025367,59.1012344 58.5899714,59.5216288 L58.6093905,58.8540795 C58.751036,58.781319 58.8881122,58.7004739 59.027473,58.6219387 C64.8840555,57.7603612 77.7345087,57.146262 81.748558,53.2703183 C75.5435735,51.9952761 70.6842207,49.0340366 65.5552846,45.2816704 Z" id="Fill-14" fill="url(#linearGradient-3)" opacity="0.797014509" mask="url(#mask-2)"></path>
                </g>
                <path d="M4.83394017,58.1243574 C3.44888367,57.8259118 4.20711779,58.9639532 4.20711779,58.9639532 C6.05502272,60.2866359 8.28902233,61.1053289 10.720721,61.1761662 L34.817913,61.8706036 C34.7399963,67.7419679 34.2631927,76.1843765 33.4200642,81.7096833 C34.2736591,81.8060685 35.1295798,81.9036149 35.9843376,82 L42.3618773,81.7828431 C42.3083823,75.1659457 42.4607269,68.2958921 45.6250751,62.5116228 C46.71242,60.5235343 45.3227118,58.9163412 42.8991536,57.3103094 C34.3911156,51.673521 4.83394017,58.1243574 4.83394017,58.1243574" id="Fill-19" fill="#E4E4FF"></path>
                <path d="M4.00407243,47.4585282 C4.09568548,45.9260181 4.78547787,44.0835296 6.00985935,44.0033794 C7.23531863,43.9232292 8.02319086,45.2819196 7.99947925,46.681168 C7.97576764,48.0804163 7.81517535,49.7655015 6.75569736,50.8267671 C5.34808978,51.7122818 3.91353718,48.9910383 4.00407243,47.4585282" id="Fill-21" fill="#242472"></path>
                <path d="M1.01090634,48.2136922 C1.05592753,46.9495045 1.19861007,44.9745328 1.80951297,45.0002486 C2.81521706,45.0434511 3.01192503,46.4177023 2.99945762,47.5718264 C2.98768285,48.7259504 3.01885136,51.0485994 2.19669519,50.9992252 C1.00744318,50.927221 0.965885155,49.4778798 1.01090634,48.2136922" id="Fill-23" fill="#242472"></path>
                <polygon id="Fill-25" fill="#E4E4FF" points="24 59 18 58.4019195 20.5809426 53"></polygon>
                <g id="Group-6" transform="translate(17.000000, 34.000000)">
                    <g id="Group-3" transform="translate(5.278195, 0.000000)">
                        <mask id="mask-5" fill="white">
                            <use xlink:href="#path-4"></use>
                        </mask>
                        <g id="Clip-2"></g>
                        <path d="M0.758740602,1.73095162 C6.24674436,1.12293282 12.2018684,0.842418291 17.6898722,0.234399487 C18.0052444,0.200225128 18.3377707,0.167474701 18.6280714,0.30702 C19.2218684,0.593230256 19.357782,1.42195846 19.4118835,2.12110889 C19.5517556,3.92665419 19.6916278,5.76210205 19.3591015,7.53916872 C19.0265752,9.31481145 18.1530338,11.0562798 16.6975714,11.9633243 C15.4717105,12.7265516 13.9964549,12.8162593 12.583218,12.8874559 C10.503609,12.9928268 8.424,13.0981978 6.34307143,13.2035687 C5.47348872,13.2462867 4.52077444,13.2647978 3.83460902,12.6838337 C3.16031955,12.114261 2.94259398,11.1345961 2.76709398,10.2303995 C2.21420301,7.38823197 1.31163158,4.57454308 0.758740602,1.73095162" id="Fill-1" fill="#000000" mask="url(#mask-5)"></path>
                    </g>
                    <path d="M7.08311908,3.3461759 C5.00052504,3.11373467 2.91676819,2.88258478 0.834174149,2.65014354 C-0.282124164,2.52617488 -0.273984489,4.46447651 0.834174149,4.58715383 C2.91676819,4.81959506 5.00052504,5.05074496 7.08311908,5.28318619 C8.1994174,5.40715485 8.19127772,3.47014456 7.08311908,3.3461759" id="Fill-4" fill="#000000"></path>
                </g>
            </g>
            <g id="Group-8" transform="translate(43.000000, 0.000000)">
                <g id="Group-16">
                    <mask id="mask-7" fill="white">
                        <use xlink:href="#path-6"></use>
                    </mask>
                    <g id="Clip-15"></g>
                    <path d="M88.4807922,57.8177845 C81.7648089,56.4338972 76.5052741,53.219869 70.9539551,49.1471789 L71.0714106,48.9854746 C74.3972566,47.3822211 77.9901593,44.8062352 80.8140374,43.0137 C83.5600239,41.2713056 89.84204,33.194869 91.9537667,30.582531 C85.9202618,31.9739394 74.7607505,34.6351648 67.5774179,34.4245732 L67.4562532,34.4496437 C75.7622134,31.0200099 85.1833829,15.8047704 89.2164347,0.432840845 C81.3085869,8.8615169 59.9613543,17.8003761 50.0827265,17.5108127 C34.7306711,17.0620521 21.3939053,24.6972493 19.1288682,39.7044042 C19.0398493,40.2960662 18.5440633,40.7347986 17.9530766,40.7172493 L13.358711,40.5831225 C6.94440294,40.3963479 1.17671846,44.9654324 0.22718327,51.3997563 C-0.902862521,59.0713056 4.88089482,65.8490944 12.3003749,66.067207 L37.9205159,66.8168127 C37.8352061,73.2987704 37.3072744,82.6914042 36.3725757,88.6406155 L61.4660214,87.7744324 C62.0409353,76.7509676 63.0770167,66.1862915 63.0634166,66.6425732 L63.0844349,65.918038 C63.2377453,65.8390662 63.3861102,65.7513197 63.5369478,65.6660803 C69.875837,64.7309535 84.1361742,62.0246014 88.4807922,57.8177845" id="Fill-14" fill="#3A3A96" mask="url(#mask-7)"></path>
                </g>
                <path d="M5.22191192,64.2575793 C7.20181006,65.6782386 9.59538107,66.5575755 12.2007725,66.6336599 L37.8702708,67.3319743 C37.7867887,73.6382545 37.2759276,82.7060267 36.3725757,88.6406155 C37.2871416,88.7441403 38.3531212,88.8964752 39.2689331,89 L46.1020114,88.7667574 C46.0446953,81.6597194 46.2079216,74.280773 49.5982947,68.0680393 C50.7633072,65.932685 49.274334,64.2064406 46.6776646,62.4814435 C37.5619096,56.4271152 5.89350732,63.3557912 5.89350732,63.3557912 C4.40951822,63.0352386 5.22191192,64.2575793 5.22191192,64.2575793 Z" id="Fill-19" fill="#E4E4FF"></path>
                <path d="M5.00407243,51.9526036 C5.09568548,50.2011635 5.78547787,48.0954624 7.00985935,48.0038622 C8.23531863,47.912262 9.02319086,49.465051 8.99947925,51.064192 C8.97576764,52.663333 8.81517535,54.5891446 7.75569736,55.8020196 C6.34808978,56.8140363 4.91353718,53.7040438 5.00407243,51.9526036" id="Fill-21" fill="#242472"></path>
                <path d="M1.01635952,52.7493075 C1.0838913,51.274422 1.2979151,48.9702883 2.21426945,49.0002901 C3.72282559,49.050693 4.01788754,50.653986 3.99918643,52.0004641 C3.98152427,53.3469422 4.02827704,56.0566994 2.79504279,55.999096 C1.01116476,55.9150911 0.948827733,54.2241931 1.01635952,52.7493075" id="Fill-23" fill="#242472"></path>
                <polygon id="Fill-25" fill="#E4E4FF" points="26 64 19 63.3022394 22.0110997 57"></polygon>
                <g id="Group-6" transform="translate(19.000000, 37.000000)">
                    <g id="Group-3" transform="translate(5.684211, 0.000000)">
                        <mask id="mask-9" fill="white">
                            <use xlink:href="#path-8"></use>
                        </mask>
                        <g id="Clip-2"></g>
                        <path d="M0.817105263,1.85459103 C6.72726316,1.20314231 13.1404737,0.902591026 19.0506316,0.251142308 C19.3902632,0.214526923 19.7483684,0.179437179 20.061,0.32895 C20.7004737,0.635603846 20.8468421,1.52352692 20.9051053,2.27261667 C21.0557368,4.20712949 21.2063684,6.17368077 20.8482632,8.07768077 C20.4901579,9.98015513 19.5494211,11.8460141 17.982,12.8178474 C16.6618421,13.635591 15.0731053,13.7317064 13.5511579,13.8079885 C11.3115789,13.9208859 9.072,14.0337833 6.831,14.1466808 C5.89452632,14.19245 4.86852632,14.2122833 4.12957895,13.5898218 C3.40342105,12.9795654 3.16894737,11.9299244 2.97994737,10.9611423 C2.38452632,7.91596282 1.41252632,4.90129615 0.817105263,1.85459103" id="Fill-1" fill="#000000" mask="url(#mask-9)"></path>
                    </g>
                    <path d="M7.6279744,3.58518847 C5.38518082,3.33614429 3.14113497,3.08848369 0.898341392,2.83943951 C-0.303826023,2.70661595 -0.295060219,4.78336769 0.898341392,4.91480767 C3.14113497,5.16385185 5.38518082,5.41151245 7.6279744,5.66055663 C8.83014181,5.7933802 8.82137601,3.71801203 7.6279744,3.58518847" id="Fill-4" fill="#000000"></path>
                </g>
            </g>
        </g>
    </g>
</svg>