<?xml version="1.0" encoding="UTF-8"?>
<svg width="113px" height="109px" viewBox="0 0 113 109" version="1.1" xmlns="http://www.w3.org/2000/svg" xmlns:xlink="http://www.w3.org/1999/xlink">
    <!-- Generator: Sketch 56.2 (81672) - https://sketch.com -->
    <title>create_survey</title>
    <desc>Created with Sketch.</desc>
    <defs>
        <polygon id="path-1" points="0.301204238 0.138192364 55.3370523 0.138192364 55.3370523 37 0.301204238 37"></polygon>
    </defs>
    <g id="create_survey" stroke="none" stroke-width="1" fill="none" fill-rule="evenodd">
        <g id="Group-7">
            <path d="M108.729006,69.6098952 C100.469111,67.9318801 93.9984365,64.0323569 87.1711858,59.091799 L87.3138164,58.8953175 C91.4057294,56.9511018 95.824108,53.8264127 99.2979551,51.6524405 C102.676715,49.5386803 110.404123,39.7431288 113,36.5724884 C105.578455,38.2600107 91.8542233,41.4892785 83.0158814,41.2341695 L82.8700813,41.2642756 C93.0856007,37.1033053 104.673543,18.6467243 109.633918,0 C99.9080971,10.2249585 73.6482215,21.067883 61.4976804,20.7177023 C42.6133909,20.1710402 26.2092889,29.4341903 23.4232381,47.6388313 C23.313888,48.3566224 22.7021612,48.8874393 21.97633,48.8668404 L16.3249893,48.703634 C8.43593315,48.4770466 1.34085392,54.0197252 0.174452693,61.8251096 C-1.21698791,71.1294574 5.89710873,79.3515727 15.0238814,79.6161888 L46.5373168,80.5257079 C46.4311363,88.3881353 45.7845443,99.7824754 44.6355757,107 L75.4992496,105.949458 C76.2076481,92.5760425 77.4818147,79.7619654 77.4643821,80.3133811 L77.4913234,79.4355527 C77.6799127,79.340481 77.8621629,79.2327331 78.0475827,79.1297388 C85.8447213,77.9952168 103.386699,74.7136595 108.729006,69.6098952" id="Fill-27" fill="#169C6E"></path>
            <path d="M44.1369991,55.2943576 C44.0916191,56.764276 44.0462391,58.235724 44.0008591,59.7056424 C43.9635827,60.9445955 45.1450831,62 46.43193,62 C47.7819847,62 48.8257245,60.9491842 48.8630009,59.7056424 C48.9083809,58.235724 48.9537609,56.764276 48.9991409,55.2943576 C49.0364173,54.0538749 47.8549169,53 46.56807,53 C45.2180153,53 44.1742755,54.0508158 44.1369991,55.2943576" id="Fill-29" fill="#000000"></path>
            <g id="Group-33" transform="translate(5.000000, 72.000000)">
                <mask id="mask-2" fill="white">
                    <use xlink:href="#path-1"></use>
                </mask>
                <g id="Clip-32"></g>
                <path d="M1.47117387,4.80072429 C3.89440535,6.60820255 4.95078238,7.35767119 9.21562519,8.14292107 C12.0588537,8.666421 22.5485032,9.12480383 40.6845736,9.51806957 C40.582944,17.5344174 40.354017,27.4561739 39.2503828,35 L42.4963651,35 L50.5841187,34.6895814 C50.5142484,25.6554945 50.701444,18.291113 54.8460273,10.3937217 C56.2704301,7.6792 54.4490366,5.48346087 51.2746986,3.29267826 C40.1271986,-4.40314783 2,4.27396301 2,4.27396301 C2,4.27396301 1.00199627,4.31021484 1.47117387,4.80072429 Z" id="Fill-31" fill="#E4F4ED" mask="url(#mask-2)"></path>
            </g>
            <path d="M7.00513886,63.9412537 C7.12023887,61.7519373 7.98068164,59.11987 9.51207325,59.0048698 C11.0434649,58.8898696 12.0288333,60.8304981 11.9993564,62.8300642 C11.9684759,64.8281928 11.7677527,67.2360097 10.442699,68.7525749 C8.68391464,70.0175772 6.89144251,66.1291327 7.00513886,63.9412537" id="Fill-34" fill="#098958"></path>
            <path d="M0.0269850497,63.8203494 C0.140675313,61.9232274 0.49618296,58.9617878 2.02468538,59.0003733 C4.54030803,59.0646825 5.02935662,61.125793 4.99867829,62.8573188 C4.96799997,64.5888446 5.04740269,68.0727966 2.99195492,67.998841 C0.0197666203,67.8895153 -0.0849006059,65.7174714 0.0269850497,63.8203494" id="Fill-36" fill="#098958"></path>
            <polygon id="Fill-38" fill="#E4F4ED" points="31 76 22 75.1031579 25.8729311 67"></polygon>
        </g>
    </g>
</svg>